<?xml version="1.0" encoding="UTF-8"?>
<svg version="1.1" xmlns="http://www.w3.org/2000/svg" width="1024" height="1024">
<path d="M0 0 C337.92 0 675.84 0 1024 0 C1024 337.92 1024 675.84 1024 1024 C686.08 1024 348.16 1024 0 1024 C0 686.08 0 348.16 0 0 Z " fill="#003D89" transform="translate(0,0)"/>
<path d="M0 0 C0.67642548 0.00021149 1.35285095 0.00042297 2.04977417 0.00064087 C34.41671505 0.10117856 63.74006633 11.759071 87 34.375 C95.52985353 43.00744627 102.89813918 52.88373608 109 63.375 C114.8381318 61.70186625 120.60705688 59.85617065 126.3515625 57.88671875 C211.30188853 28.80264567 301.83408455 27.46957701 407 64.375 C407.25910156 63.6634375 407.51820313 62.951875 407.78515625 62.21875 C412.26767852 51.72590044 420.47579536 42.80921169 428 34.375 C428.66773438 33.6221875 429.33546875 32.869375 430.0234375 32.09375 C448.76815893 12.1626538 478.35914855 0.89594276 505.2734375 0.05859375 C539.03487518 -0.3943638 567.95142559 7.38486802 594 29.375 C594.80050781 30.02855469 595.60101562 30.68210938 596.42578125 31.35546875 C608.84002952 41.90856975 617.64836896 54.9733433 625 69.375 C625.56460938 70.45265625 626.12921875 71.5303125 626.7109375 72.640625 C633.65138726 86.66244736 637.02689514 101.8267091 638 117.375 C638.06791748 118.4254248 638.06791748 118.4254248 638.13720703 119.49707031 C639.85408398 150.91807357 629.00584425 183.59892133 608.26806641 207.359375 C602.69919911 213.54667734 596.90745875 219.5118749 591 225.375 C591.57105469 226.54546875 592.14210938 227.7159375 592.73046875 228.921875 C605.27732729 255.25186535 614.76207388 283.1467074 622 311.375 C622.16437561 312.01272339 622.32875122 312.65044678 622.49810791 313.30749512 C626.84724496 330.22616172 630.5153822 347.20259217 633.375 364.4375 C633.49651428 365.1682373 633.61802856 365.89897461 633.7432251 366.65185547 C643.55433981 426.27103855 640.93291952 486.51576672 623 544.375 C622.61255615 545.63618652 622.61255615 545.63618652 622.21728516 546.92285156 C611.29925995 581.80162959 593.45703918 615.34457582 570 643.375 C569.35417969 644.19226563 568.70835937 645.00953125 568.04296875 645.8515625 C557.09339265 659.62486973 544.69828665 672.95376867 531.3203125 684.390625 C529.55011966 685.9045273 527.79815218 687.43976703 526.0546875 688.984375 C505.04542964 707.49856827 481.47490659 722.85616292 457 736.375 C456.13600586 736.85291992 455.27201172 737.33083984 454.38183594 737.82324219 C406.93781079 763.83429609 355.58352069 779.12107794 302 785.375 C301.23629089 785.46749023 300.47258179 785.55998047 299.68572998 785.65527344 C286.34832984 787.24987015 273.17538072 787.69939736 259.75 787.625 C258.27330841 787.62084579 258.27330841 787.62084579 256.76678467 787.61660767 C242.96996569 787.57116728 229.28471425 787.32440924 215.5703125 785.68261719 C212.93467595 785.36718196 210.29662497 785.09295992 207.65625 784.8203125 C179.80578935 781.75391109 152.56484342 775.15050203 126 766.375 C124.51717529 765.88628418 124.51717529 765.88628418 123.00439453 765.38769531 C74.51344471 749.14268001 30.16204956 723.02797264 -9 690.375 C-10.0209375 689.54097656 -11.041875 688.70695313 -12.09375 687.84765625 C-26.67209279 675.78707595 -40.4089018 662.34191703 -52 647.375 C-53.60078117 645.49710881 -55.20516285 643.62228283 -56.8125 641.75 C-67.66822785 628.67950233 -76.51590981 614.61782667 -84.68945312 599.74511719 C-85.80679311 597.72441366 -86.94901675 595.72269536 -88.109375 593.7265625 C-114.97034407 546.10939006 -125.26691986 489.93544049 -125.1875 435.8125 C-125.18656342 434.97818451 -125.18562683 434.14386902 -125.18466187 433.28427124 C-125.15220943 419.87949645 -124.69591812 406.68507585 -123 393.375 C-122.84402344 392.11252441 -122.68804687 390.85004883 -122.52734375 389.54931641 C-115.68836841 334.83913526 -101.38780824 281.72144572 -79.22998047 231.21704102 C-78.10589023 228.61967411 -77.03662041 226.00830632 -76 223.375 C-76.53496094 223.16230469 -77.06992188 222.94960938 -77.62109375 222.73046875 C-98.57193274 210.79296279 -113.16849812 181.13617668 -119.35253906 158.93188477 C-122.21906773 147.61169067 -123.51267056 137.1210019 -123.375 125.4375 C-123.37067963 124.7381131 -123.36635925 124.0387262 -123.36190796 123.31814575 C-123.28769354 113.06206426 -122.8491135 103.28945546 -120 93.375 C-119.6596875 92.14910156 -119.319375 90.92320312 -118.96875 89.66015625 C-109.39126267 58.3068278 -87.26933867 29.79038849 -58.31225586 14.1184082 C-51.51729018 10.63400804 -44.47258739 7.95957684 -37.25 5.5 C-36.41130371 5.21350586 -35.57260742 4.92701172 -34.70849609 4.63183594 C-23.23927604 0.9168011 -12.01405684 -0.01564427 0 0 Z " fill="#003D89" transform="translate(255,123.625)"/>
<path d="M0 0 C9.87809161 8.74356122 18.41694342 18.30515382 26.38134766 28.78857422 C35.694569 40.92031594 45.0412104 51.00859014 59.69628906 56.50146484 C60.34984375 56.74767578 61.00339844 56.99388672 61.67675781 57.24755859 C74.95950661 61.35416537 89.91975338 57.69590414 102.62988281 53.12255859 C114.98428769 48.7047155 129.0547805 46.33775264 141.44628906 51.93896484 C151.15401819 57.76634462 157.30456021 66.63326836 160.28613281 77.44433594 C161.09815385 81.51700812 161.03423705 85.61253072 161.00878906 89.75146484 C161.00314941 90.72092041 160.99750977 91.69037598 160.99169922 92.68920898 C160.34082855 132.12488252 143.69903838 173.2688195 121.69628906 205.50146484 C121.3026416 206.08895508 120.90899414 206.67644531 120.50341797 207.28173828 C106.03583646 228.78488396 87.34414589 249.12097825 66.33642578 264.31445312 C64.65143528 265.53392675 62.9881796 266.77953534 61.32519531 268.02880859 C20.01962168 298.69729881 -30.15066659 312.71008006 -81.17871094 312.75146484 C-82.47562363 312.75297546 -82.47562363 312.75297546 -83.79873657 312.7545166 C-96.34636857 312.74464972 -108.56964028 312.29718994 -120.93115234 309.95019531 C-123.35602074 309.4915713 -125.7860369 309.0899083 -128.22167969 308.69287109 C-148.09549459 305.27843575 -167.22591744 298.34983681 -185.30371094 289.50146484 C-186.06989746 289.12795898 -186.83608398 288.75445313 -187.62548828 288.36962891 C-211.54272836 276.57065362 -232.08248601 260.87313287 -251.30371094 242.50146484 C-252.05136719 241.79505859 -252.79902344 241.08865234 -253.56933594 240.36083984 C-258.96742923 235.13276524 -263.6496837 229.39244284 -268.30371094 223.50146484 C-269.12097656 222.47794922 -269.93824219 221.45443359 -270.78027344 220.39990234 C-276.82192343 212.756131 -282.26106845 204.83676116 -287.30371094 196.50146484 C-287.66819336 195.90027832 -288.03267578 195.2990918 -288.40820312 194.6796875 C-307.83101753 162.27118739 -328.02366671 115.18936041 -320.55371094 76.43896484 C-317.5789783 65.82365179 -311.2691072 57.4393498 -301.61621094 52.00146484 C-289.02081683 45.43946502 -275.28726448 49.108027 -262.40527344 53.11669922 C-261.42300781 53.42929687 -260.44074219 53.74189453 -259.42871094 54.06396484 C-257.43199135 54.69241953 -255.43461687 55.31879814 -253.43652344 55.94287109 C-252.56914551 56.2181665 -251.70176758 56.49346191 -250.80810547 56.77709961 C-237.35499426 60.66824612 -222.57636046 59.14057252 -210.24121094 52.56396484 C-199.34171866 45.68383914 -191.70884752 36.00027888 -184.09790039 25.79882812 C-179.21899325 19.28141096 -173.95043211 13.3653676 -168.30371094 7.50146484 C-167.56894531 6.70353516 -166.83417969 5.90560547 -166.07714844 5.08349609 C-125.91458937 -37.34277085 -43.33577663 -36.96440117 0 0 Z " fill="#F7F7F8" transform="translate(592.3037109375,513.49853515625)"/>
<path d="M0 0 C0.67642548 0.00021149 1.35285095 0.00042297 2.04977417 0.00064087 C34.41671505 0.10117856 63.74006633 11.759071 87 34.375 C95.52985353 43.00744627 102.89813918 52.88373608 109 63.375 C114.8381318 61.70186625 120.60705688 59.85617065 126.3515625 57.88671875 C211.30188853 28.80264567 301.83408455 27.46957701 407 64.375 C407.25910156 63.6634375 407.51820313 62.951875 407.78515625 62.21875 C412.26767852 51.72590044 420.47579536 42.80921169 428 34.375 C428.66773438 33.6221875 429.33546875 32.869375 430.0234375 32.09375 C448.76815893 12.1626538 478.35914855 0.89594276 505.2734375 0.05859375 C539.03487518 -0.3943638 567.95142559 7.38486802 594 29.375 C594.80050781 30.02855469 595.60101562 30.68210938 596.42578125 31.35546875 C608.84002952 41.90856975 617.64836896 54.9733433 625 69.375 C625.56460938 70.45265625 626.12921875 71.5303125 626.7109375 72.640625 C633.65138726 86.66244736 637.02689514 101.8267091 638 117.375 C638.06791748 118.4254248 638.06791748 118.4254248 638.13720703 119.49707031 C639.85408398 150.91807357 629.00584425 183.59892133 608.26806641 207.359375 C602.69919911 213.54667734 596.90745875 219.5118749 591 225.375 C591.57105469 226.54546875 592.14210938 227.7159375 592.73046875 228.921875 C605.27732729 255.25186535 614.76207388 283.1467074 622 311.375 C622.16437561 312.01272339 622.32875122 312.65044678 622.49810791 313.30749512 C626.84724496 330.22616172 630.5153822 347.20259217 633.375 364.4375 C633.49651428 365.1682373 633.61802856 365.89897461 633.7432251 366.65185547 C643.55433981 426.27103855 640.93291952 486.51576672 623 544.375 C622.61255615 545.63618652 622.61255615 545.63618652 622.21728516 546.92285156 C611.29925995 581.80162959 593.45703918 615.34457582 570 643.375 C569.35417969 644.19226563 568.70835937 645.00953125 568.04296875 645.8515625 C557.09339265 659.62486973 544.69828665 672.95376867 531.3203125 684.390625 C529.55011966 685.9045273 527.79815218 687.43976703 526.0546875 688.984375 C505.04542964 707.49856827 481.47490659 722.85616292 457 736.375 C456.13600586 736.85291992 455.27201172 737.33083984 454.38183594 737.82324219 C406.93781079 763.83429609 355.58352069 779.12107794 302 785.375 C301.23629089 785.46749023 300.47258179 785.55998047 299.68572998 785.65527344 C286.34832984 787.24987015 273.17538072 787.69939736 259.75 787.625 C258.27330841 787.62084579 258.27330841 787.62084579 256.76678467 787.61660767 C242.96996569 787.57116728 229.28471425 787.32440924 215.5703125 785.68261719 C212.93467595 785.36718196 210.29662497 785.09295992 207.65625 784.8203125 C179.80578935 781.75391109 152.56484342 775.15050203 126 766.375 C124.51717529 765.88628418 124.51717529 765.88628418 123.00439453 765.38769531 C74.51344471 749.14268001 30.16204956 723.02797264 -9 690.375 C-10.0209375 689.54097656 -11.041875 688.70695313 -12.09375 687.84765625 C-26.67209279 675.78707595 -40.4089018 662.34191703 -52 647.375 C-53.60078117 645.49710881 -55.20516285 643.62228283 -56.8125 641.75 C-67.66822785 628.67950233 -76.51590981 614.61782667 -84.68945312 599.74511719 C-85.80679311 597.72441366 -86.94901675 595.72269536 -88.109375 593.7265625 C-114.97034407 546.10939006 -125.26691986 489.93544049 -125.1875 435.8125 C-125.18656342 434.97818451 -125.18562683 434.14386902 -125.18466187 433.28427124 C-125.15220943 419.87949645 -124.69591812 406.68507585 -123 393.375 C-122.84402344 392.11252441 -122.68804687 390.85004883 -122.52734375 389.54931641 C-115.68836841 334.83913526 -101.38780824 281.72144572 -79.22998047 231.21704102 C-78.10589023 228.61967411 -77.03662041 226.00830632 -76 223.375 C-76.53496094 223.16230469 -77.06992188 222.94960938 -77.62109375 222.73046875 C-98.57193274 210.79296279 -113.16849812 181.13617668 -119.35253906 158.93188477 C-122.21906773 147.61169067 -123.51267056 137.1210019 -123.375 125.4375 C-123.37067963 124.7381131 -123.36635925 124.0387262 -123.36190796 123.31814575 C-123.28769354 113.06206426 -122.8491135 103.28945546 -120 93.375 C-119.6596875 92.14910156 -119.319375 90.92320312 -118.96875 89.66015625 C-109.39126267 58.3068278 -87.26933867 29.79038849 -58.31225586 14.1184082 C-51.51729018 10.63400804 -44.47258739 7.95957684 -37.25 5.5 C-36.41130371 5.21350586 -35.57260742 4.92701172 -34.70849609 4.63183594 C-23.23927604 0.9168011 -12.01405684 -0.01564427 0 0 Z M-60 57.375 C-60.69609375 57.98859375 -61.3921875 58.6021875 -62.109375 59.234375 C-76.8061611 72.99056679 -88.83977504 94.77798805 -90.17700195 115.05957031 C-90.78492078 143.76496436 -85.48655512 168.46664733 -65.25219727 190.02954102 C-57.45505662 198.14137039 -49.3658843 204.72624507 -39.80859375 210.625 C-37 212.375 -37 212.375 -36 213.375 C-36.12270957 220.67621962 -39.90519084 226.43443724 -43.25 232.75 C-74.71994178 293.65710203 -92.12047742 365.38077105 -92.24023438 433.77197266 C-92.24985761 437.07611072 -92.28092535 440.37960303 -92.3125 443.68359375 C-92.4124337 463.63696078 -90.506123 483.29015852 -86.3125 502.8125 C-86.05758789 504.01148926 -85.80267578 505.21047852 -85.54003906 506.44580078 C-76.30404978 548.41603405 -57.6000773 589.25094029 -30 622.375 C-29.5477002 622.92349609 -29.09540039 623.47199219 -28.62939453 624.03710938 C-16.78911244 638.37826752 -4.30508918 652.44257457 10 664.375 C10.53834473 664.82713867 11.07668945 665.27927734 11.63134766 665.74511719 C87.70226608 729.42577369 188.49277061 761.73101423 289.94403076 753.43017578 C364.60180823 746.45582227 439.09683253 718.54176989 497.37011719 670.71240234 C498.43652773 669.83735786 499.50734667 668.96765164 500.58300781 668.10400391 C509.16299505 661.20132733 517.0119499 653.57020107 524.8125 645.8125 C525.30064178 645.32962524 525.78878357 644.84675049 526.29171753 644.34924316 C532.99039909 637.70652374 539.14667276 630.77621544 545 623.375 C545.86844303 622.31399886 546.73795197 621.25386747 547.609375 620.1953125 C571.3058086 590.35856216 586.79761405 554.83657108 597 518.375 C597.20318848 517.67713379 597.40637695 516.97926758 597.61572266 516.26025391 C603.58343299 495.71405678 606.05730075 473.59061027 606.2734375 452.23828125 C606.28601089 451.09699768 606.29858429 449.95571411 606.3115387 448.77984619 C606.55540103 421.25820725 605.80592323 394.50269793 601 367.375 C600.86704529 366.62277161 600.73409058 365.87054321 600.59710693 365.09552002 C591.86461639 316.25912869 577.85549018 260.15823527 550 218.375 C549.60546875 215.89453125 549.60546875 215.89453125 550 213.375 C551.80078125 211.63671875 551.80078125 211.63671875 554.3125 210.0625 C555.2303125 209.46050781 556.148125 208.85851562 557.09375 208.23828125 C558.0528125 207.62339844 559.011875 207.00851562 560 206.375 C578.65028426 193.95061945 592.49109829 177.63457795 600 156.375 C600.4125 155.24835938 600.825 154.12171875 601.25 152.9609375 C606.6433654 135.46995387 606.63112398 113.47631975 600 96.375 C599.649375 95.364375 599.29875 94.35375 598.9375 93.3125 C594.19564152 80.66754406 586.33750363 70.00810431 577 60.375 C576.46246094 59.76398438 575.92492187 59.15296875 575.37109375 58.5234375 C564.21579485 46.27777104 547.64559749 39.39477568 532 35.375 C531.40856201 35.198479 530.81712402 35.02195801 530.20776367 34.84008789 C508.6192385 30.29224531 485.6166819 35.29329133 467 46.375 C449.05500964 58.07825458 438.02977937 73.54394137 428.91992188 92.49755859 C423.1963284 104.1786716 423.1963284 104.1786716 421 106.375 C414.2974304 106.10290651 409.09358316 103.23030042 403.1875 100.25 C342.87198916 70.72365844 272.11359697 63.0692406 206 72.375 C204.42001221 72.5918042 204.42001221 72.5918042 202.80810547 72.81298828 C169.54725946 77.50661915 135.00003447 86.72251204 105.34033203 102.81835938 C101.7454758 104.76297476 98.77705784 106.25857992 94.71484375 106.8671875 C89.97114896 104.25986173 88.62415781 99.31870723 86.5625 94.5 C85.60247152 92.38062469 84.63768112 90.26339951 83.66796875 88.1484375 C82.97840088 86.6339502 82.97840088 86.6339502 82.27490234 85.08886719 C72.1789076 63.59766122 53.52685662 46.46797772 31.29858398 38.32470703 C-0.86872968 27.41988439 -34.78264019 34.69523615 -60 57.375 Z " fill="#F7F7F8" transform="translate(255,123.625)"/>
<path d="M0 0 C1.17734711 -0.00101212 1.17734711 -0.00101212 2.378479 -0.00204468 C21.53149543 0.02414941 43.40887205 0.32016938 58.25 14.25 C63.88440849 19.92912602 67.51239851 24.53629084 67.625 32.8125 C67.41914316 43.28546665 63.6711875 52.09725633 57.25 60.25 C56.31220703 61.45076172 56.31220703 61.45076172 55.35546875 62.67578125 C46.05932033 73.76562065 34.67032317 80.60296833 21.47119141 86.11938477 C20.69179199 86.45768311 19.91239258 86.79598145 19.109375 87.14453125 C18.41295898 87.43175049 17.71654297 87.71896973 16.99902344 88.01489258 C14.50711055 89.77460605 14.06505337 91.33090617 13.25 94.25 C12.88393681 98.44427064 12.92061715 102.63115522 12.93432617 106.84033203 C12.93745794 108.848037 12.91325019 110.85572428 12.88867188 112.86328125 C12.88380013 122.65549112 13.11558186 133.30927633 20.328125 140.75390625 C31.85364861 149.72601101 46.30345552 149.63105956 60.1875 149.5625 C60.96789642 149.56034485 61.74829285 149.5581897 62.55233765 149.55596924 C74.36216264 149.50357468 85.72317624 149.0173328 97.25 146.25 C98.11302734 146.05132324 98.97605469 145.85264648 99.86523438 145.64794922 C135.71401664 137.22815254 168.3225564 118.68835739 188.1171875 87.02050781 C193.48357664 78.63321168 193.48357664 78.63321168 196.25 77.25 C198.23828125 76.9765625 198.23828125 76.9765625 200.5625 76.875 C201.32175781 76.82601562 202.08101562 76.77703125 202.86328125 76.7265625 C206.57347899 77.54025562 207.9825507 79.26360336 210.25 82.25 C210.74634586 85.04310155 210.92008066 87.10166704 210.8125 89.875 C210.79517822 90.61717773 210.77785645 91.35935547 210.76000977 92.12402344 C209.29003833 127.92699175 190.68821565 165.08233478 168.25 192.25 C167.44691406 193.25546875 166.64382813 194.2609375 165.81640625 195.296875 C153.17700149 210.909682 138.71381661 224.74585682 122.25 236.25 C121.65799805 236.66540039 121.06599609 237.08080078 120.45605469 237.50878906 C86.50973805 261.0100852 46.67056599 272.91629249 5.53833008 272.64111328 C2.68457439 272.62498346 -0.16777002 272.64110707 -3.02148438 272.66015625 C-18.91786419 272.67866511 -34.53716065 271.01087169 -49.9375 266.9375 C-51.17270386 266.61567749 -51.17270386 266.61567749 -52.43286133 266.28735352 C-76.15280426 259.94574559 -98.76905871 249.56717875 -118.75 235.25 C-119.33136719 234.83540527 -119.91273438 234.42081055 -120.51171875 233.99365234 C-129.19360108 227.72809481 -137.038704 220.65512266 -144.75 213.25 C-145.26449707 212.76273438 -145.77899414 212.27546875 -146.30908203 211.7734375 C-177.39940897 182.25193379 -204.83392809 135.87501672 -206.08203125 92.19140625 C-206.09621094 91.50949219 -206.11039062 90.82757812 -206.125 90.125 C-206.16238281 89.43535156 -206.19976562 88.74570312 -206.23828125 88.03515625 C-206.30509403 84.15259126 -205.88146918 82.4223961 -203.50390625 79.3046875 C-200.00075723 76.6909905 -198.18677519 76.36744435 -193.9375 76.66796875 C-189.80384622 77.76781592 -187.96921646 80.86332843 -185.75 84.25 C-184.99236898 85.40116113 -184.2345396 86.55219172 -183.4765625 87.703125 C-183.0645459 88.32944824 -182.6525293 88.95577148 -182.22802734 89.60107422 C-181.80215332 90.24834473 -181.3762793 90.89561523 -180.9375 91.5625 C-180.50775879 92.21879395 -180.07801758 92.87508789 -179.63525391 93.55126953 C-175.83492265 99.28512757 -171.62000526 104.37999474 -166.75 109.25 C-166.07839844 109.92160156 -165.40679687 110.59320312 -164.71484375 111.28515625 C-147.23112272 127.723122 -124.17343488 138.37533227 -101.25 144.5 C-99.88101563 144.86955811 -99.88101563 144.86955811 -98.484375 145.24658203 C-85.54850116 148.55135065 -72.72357687 149.6047826 -59.43383789 149.56567383 C-57.18522288 149.56249678 -54.93790879 149.58615793 -52.68945312 149.61132812 C-39.22579134 149.67123492 -26.01815172 148.39804622 -14.75 140.25 C-9.33767028 134.04562202 -8.43509029 126.7711147 -8.34375 118.83203125 C-8.33234985 118.05236496 -8.32094971 117.27269867 -8.3092041 116.46940613 C-8.29043016 114.83325536 -8.27728671 113.19703111 -8.26953125 111.56079102 C-8.24996554 109.05809215 -8.18776303 106.5585809 -8.125 104.05664062 C-8.11195122 102.46095685 -8.10144584 100.86524982 -8.09375 99.26953125 C-8.05670959 98.15225395 -8.05670959 98.15225395 -8.0189209 97.0124054 C-7.9748323 94.62419441 -7.9748323 94.62419441 -8.75 91.25 C-11.46611897 88.7567757 -11.46611897 88.7567757 -14.75 87.25 C-15.40186279 86.89969727 -16.05372559 86.54939453 -16.7253418 86.18847656 C-17.29422119 85.92518555 -17.86310059 85.66189453 -18.44921875 85.390625 C-19.09552246 85.08398926 -19.74182617 84.77735352 -20.40771484 84.46142578 C-21.07754395 84.14415527 -21.74737305 83.82688477 -22.4375 83.5 C-38.60459997 75.58497305 -53.59586674 63.7749984 -60.125 46.5 C-62.42970739 38.90802271 -63.52548447 30.40969895 -60.25 22.9375 C-52.7314925 10.53718381 -40.52049383 5.71295823 -27.07421875 2.01171875 C-18.0990705 -0.04486634 -9.15050982 0.00701781 0 0 Z " fill="#003D89" transform="translate(509.75,519.75)"/>
<path d="M0 0 C1.69189453 -0.02320313 1.69189453 -0.02320313 3.41796875 -0.046875 C7.89449594 -0.02568434 11.56990883 0.13910235 15.76171875 1.765625 C18.71543522 6.41192057 18.01471611 11.38660661 17.8125 16.75 C17.78994141 17.87664062 17.76738281 19.00328125 17.74414062 20.1640625 C17.68524254 22.94405232 17.60304201 25.72135332 17.5 28.5 C18.20632568 28.6131958 18.91265137 28.7263916 19.64038086 28.84301758 C37.73168867 31.90744798 51.79489885 39.61333677 62.91796875 54.3828125 C64.78119375 57.21898434 65.49689942 59.46417573 65.7890625 62.83984375 C64.27397905 67.14176251 63.46593669 67.49506088 59.58203125 69.58984375 C57.50491787 70.56660532 55.41422429 71.51488515 53.3125 72.4375 C52.27029297 72.93056641 51.22808594 73.42363281 50.15429688 73.93164062 C45.05356894 76.26960938 41.21220566 77.98139706 35.5 77.5 C34.0234375 75.9609375 34.0234375 75.9609375 32.875 73.875 C28.95789621 68.14136818 28.95789621 68.14136818 17.5 63.5 C17.83 76.04 18.16 88.58 18.5 101.5 C21.305 102.16 24.11 102.82 27 103.5 C40.77504103 107.01105144 55.80584174 112.41309881 63.52685547 125.20068359 C70.73081689 138.06416984 72.45386075 150.55367169 69.8515625 165.1328125 C65.85831454 178.20472678 56.24546694 189.43022237 44.40625 196.1171875 C35.77207779 200.22538234 27.01957676 202.70908421 17.5 203.5 C17.5314209 204.46824707 17.5314209 204.46824707 17.56347656 205.45605469 C17.64674205 208.38721068 17.69869206 211.31811777 17.75 214.25 C17.78351563 215.26578125 17.81703125 216.2815625 17.8515625 217.328125 C17.87089844 218.79765625 17.87089844 218.79765625 17.890625 220.296875 C17.9220459 221.64797363 17.9220459 221.64797363 17.95410156 223.02636719 C17.33666983 226.38971036 16.25278208 227.50545734 13.5 229.5 C9.03983211 230.32926028 4.52862553 230.10263902 0 230.0625 C-1.23621094 230.08634766 -2.47242188 230.11019531 -3.74609375 230.13476562 C-4.93332031 230.13283203 -6.12054687 230.13089844 -7.34375 230.12890625 C-8.97086914 230.1299939 -8.97086914 230.1299939 -10.63085938 230.13110352 C-13.5 229.5 -13.5 229.5 -15.86035156 227.27832031 C-17.62157421 224.29399724 -17.97447086 222.83468751 -17.890625 219.41796875 C-17.87773438 218.48662109 -17.86484375 217.55527344 -17.8515625 216.59570312 C-17.80128906 215.15614258 -17.80128906 215.15614258 -17.75 213.6875 C-17.73195313 212.70845703 -17.71390625 211.72941406 -17.6953125 210.72070312 C-17.64832887 208.31279229 -17.58265694 205.90690665 -17.5 203.5 C-18.63824219 203.38914062 -19.77648437 203.27828125 -20.94921875 203.1640625 C-32.90037943 201.65538288 -45.02642014 196.90123427 -54.5 189.5 C-55.139375 189.00242187 -55.77875 188.50484375 -56.4375 187.9921875 C-60.48418922 184.3971377 -63.20265701 180.05582376 -65.9375 175.4375 C-66.29223389 174.84767334 -66.64696777 174.25784668 -67.01245117 173.65014648 C-69.17502535 169.80753827 -70.16958343 166.8965101 -69.5 162.5 C-66.80355273 160.35384809 -64.55811798 159.01606416 -61.5 157.5 C-60.91573242 157.20383789 -60.33146484 156.90767578 -59.72949219 156.60253906 C-57.7654032 155.61302086 -55.79191036 154.64597925 -53.8125 153.6875 C-53.17111084 153.37304932 -52.52972168 153.05859863 -51.86889648 152.73461914 C-48.30894146 151.07041065 -45.44458875 149.90190351 -41.5 150.5 C-39.5625 152.5625 -39.5625 152.5625 -37.5 155.5 C-32.33398385 162.6996225 -26.08935117 166.35266221 -17.5 168.5 C-17.5 155.96 -17.5 143.42 -17.5 130.5 C-20.47 130.17 -23.44 129.84 -26.5 129.5 C-29.23970145 128.70811733 -31.79434833 127.89771052 -34.4375 126.875 C-35.1284375 126.60993652 -35.819375 126.34487305 -36.53125 126.07177734 C-42.49989283 123.68013658 -47.57189053 120.65698443 -52.5 116.5 C-53.21671875 115.90574219 -53.9334375 115.31148438 -54.671875 114.69921875 C-63.45166307 106.72809537 -67.94181423 95.93367947 -68.71484375 84.25390625 C-69.1067772 69.94049664 -65.69130891 57.3423443 -56.375 46.3125 C-45.89898353 35.28329454 -32.50836873 29.60232012 -17.5 28.5 C-17.52618408 27.79391602 -17.55236816 27.08783203 -17.5793457 26.36035156 C-17.68336357 23.15712792 -17.74834149 19.9542594 -17.8125 16.75 C-17.85439453 15.63882812 -17.89628906 14.52765625 -17.93945312 13.3828125 C-18.05996471 5.38084336 -18.05996471 5.38084336 -15.76171875 1.765625 C-10.56254875 -0.25177749 -5.52483824 -0.07576921 0 0 Z " fill="#F7F8F8" transform="translate(654.5,301.5)"/>
<path d="M0 0 C1.77020508 -0.03577148 1.77020508 -0.03577148 3.57617188 -0.07226562 C8.47828712 -0.06394285 12.01356283 -0.00919561 16.359375 2.359375 C18.98168192 7.29123664 18.59287504 11.88790097 18.375 17.375 C18.35244141 18.44943359 18.32988281 19.52386719 18.30664062 20.63085938 C18.24785598 23.2761685 18.16573957 25.91861413 18.0625 28.5625 C18.78115234 28.68149658 19.49980469 28.80049316 20.24023438 28.9230957 C36.57064759 31.73825987 51.76946694 38.37864931 61.85546875 51.98046875 C64.39231961 55.81767337 65.93767888 58.354067 66.41796875 63.00390625 C64.53111328 67.95758155 61.76182985 68.89180986 57.09179688 71.08789062 C56.03025391 71.55388672 54.96871094 72.01988281 53.875 72.5 C52.83279297 72.99306641 51.79058594 73.48613281 50.71679688 73.99414062 C45.62432775 76.32832387 41.76683672 78.07035509 36.0625 77.5625 C33.86633846 75.57817293 32.32973898 73.3984124 30.578125 71.01953125 C27.25365151 67.5226006 27.25365151 67.5226006 18.0625 63.5625 C18.0625 76.4325 18.0625 89.3025 18.0625 102.5625 C21.3625 102.8925 24.6625 103.2225 28.0625 103.5625 C37.11348138 105.83429633 45.42458347 109.14474568 53.0625 114.5625 C53.69542969 115.00078125 54.32835937 115.4390625 54.98046875 115.890625 C64.31487883 123.0614301 69.11485931 134.23543179 71.0625 145.5625 C72.19486608 160.56635057 68.02252992 173.49919751 58.5625 185.1875 C48.77817806 195.50820253 36.77511284 200.6930889 23.0625 203.5625 C21.39609677 203.59213223 19.72878434 203.59819712 18.0625 203.5625 C18.08344727 204.17246826 18.10439453 204.78243652 18.12597656 205.41088867 C18.20942861 208.19042294 18.26125011 210.9696932 18.3125 213.75 C18.34601563 214.70970703 18.37953125 215.66941406 18.4140625 216.65820312 C18.42695313 217.58955078 18.43984375 218.52089844 18.453125 219.48046875 C18.4845459 220.76087036 18.4845459 220.76087036 18.51660156 222.06713867 C17.88277274 225.55013029 16.62805422 227.14767342 14.0625 229.5625 C11.19335938 230.19360352 11.19335938 230.19360352 7.90625 230.19140625 C6.12541016 230.19430664 6.12541016 230.19430664 4.30859375 230.19726562 C3.07238281 230.17341797 1.83617187 230.14957031 0.5625 230.125 C-0.67371094 230.13595703 -1.90992188 230.14691406 -3.18359375 230.15820312 C-12.21686162 230.08464231 -12.21686162 230.08464231 -15.29785156 227.85229492 C-17.2717122 225.09576739 -17.40625441 223.71893978 -17.328125 220.359375 C-17.31523437 219.3796875 -17.30234375 218.4 -17.2890625 217.390625 C-17.25554687 216.37484375 -17.22203125 215.3590625 -17.1875 214.3125 C-17.16945313 213.28125 -17.15140625 212.25 -17.1328125 211.1875 C-17.08572712 208.64488936 -17.0199805 206.10416838 -16.9375 203.5625 C-18.10796875 203.44132813 -19.2784375 203.32015625 -20.484375 203.1953125 C-35.85621646 201.2552428 -51.23979313 193.76514961 -60.9375 181.5625 C-62.58062857 179.22278325 -64.09662614 176.82920864 -65.5625 174.375 C-65.91795898 173.79290771 -66.27341797 173.21081543 -66.63964844 172.61108398 C-68.21309002 169.80324953 -68.93423891 167.61640783 -69.12890625 164.3984375 C-67.33455443 160.12729186 -64.3564045 159.16814209 -60.25 157.375 C-59.54166016 157.04564453 -58.83332031 156.71628906 -58.10351562 156.37695312 C-56.70640512 155.72806431 -55.30422983 155.08995827 -53.89697266 154.46337891 C-52.13992692 153.65556695 -50.43063316 152.74574513 -48.73046875 151.82421875 C-45.72536196 150.46666701 -44.16842841 149.87204059 -40.9375 150.5625 C-38.76171875 152.79296875 -38.76171875 152.79296875 -36.625 155.75 C-30.68998424 163.40744986 -26.24974897 165.90185744 -16.9375 168.5625 C-17.2675 156.3525 -17.5975 144.1425 -17.9375 131.5625 C-23.5475 129.9125 -29.1575 128.2625 -34.9375 126.5625 C-47.85237931 120.50865032 -59.47111271 113.20783812 -64.78369141 99.35620117 C-66.77393428 93.09664933 -67.48391502 87.36862209 -67.4375 80.8125 C-67.43105469 79.85311523 -67.42460937 78.89373047 -67.41796875 77.90527344 C-67.08637333 64.92505816 -62.99906083 55.01508503 -53.9375 45.5625 C-53.34324219 44.92828125 -52.74898438 44.2940625 -52.13671875 43.640625 C-43.31097612 35.09836447 -29.25939394 28.5625 -16.9375 28.5625 C-16.95844727 27.85641602 -16.97939453 27.15033203 -17.00097656 26.42285156 C-17.08419298 23.21954624 -17.13617785 20.01646837 -17.1875 16.8125 C-17.22101563 15.70132812 -17.25453125 14.59015625 -17.2890625 13.4453125 C-17.30195313 12.37539063 -17.31484375 11.30546875 -17.328125 10.203125 C-17.34907227 9.21860352 -17.37001953 8.23408203 -17.39160156 7.21972656 C-15.86836471 -1.69366585 -7.04036767 -0.0651531 0 0 Z " fill="#F7F8F8" transform="translate(368.9375,301.4375)"/>
<path d="M0 0 C1.98295986 1.21860309 3.66958665 2.63991741 5.46484375 4.12109375 C30.34999338 22.56447892 66.26109812 28.27754492 96.41113281 24.17993164 C116.84673631 20.96953673 136.66050441 14.78978174 153.6171875 2.6640625 C157.20209161 0.16050652 159.06154538 -1.01675812 163.5 -0.9375 C167 0 167 0 169.375 1.9375 C171.94225119 6.7757811 172.70987787 11.59656687 171.58203125 17.00390625 C167.30985425 27.39158535 155.31855538 36.37143211 146 42 C144.92621094 42.65613281 143.85242188 43.31226563 142.74609375 43.98828125 C115.4990739 59.91586377 77.66237713 64.00622443 47.22802734 56.59082031 C25.06941387 50.71487854 -1.01496047 40.30512469 -14.21484375 20.14453125 C-15.28171889 17.23052901 -15.33918548 14.66045558 -15.375 11.5625 C-15.40335937 10.45003906 -15.43171875 9.33757813 -15.4609375 8.19140625 C-14.90673868 4.35428393 -13.67977902 2.74453205 -11 0 C-7.44020708 -1.77989646 -3.75854622 -0.97330431 0 0 Z " fill="#F6F7F8" transform="translate(434,704)"/>
<path d="M0 0 C13.68421053 3.42105263 13.68421053 3.42105263 18.3125 9.8125 C19.87817885 14.79420545 19.54287577 19.40185717 17.625 24.1875 C14.90383917 29.13240517 10.23365229 31.32265073 5 33 C3.35 33 1.7 33 0 33 C0 22.11 0 11.22 0 0 Z " fill="#023D89" transform="translate(672,438)"/>
<path d="M0 0 C11.54605263 1.28289474 11.54605263 1.28289474 16.640625 6.765625 C18.38813471 9.63796855 18.40030413 11.59313741 18.375 14.9375 C18.38273437 15.95714844 18.39046875 16.97679687 18.3984375 18.02734375 C17.7915382 22.55528852 15.94073555 25.13353304 12.625 28.1875 C8.11413455 31.30214519 5.57259845 32 0 32 C0 21.44 0 10.88 0 0 Z " fill="#023986" transform="translate(387,439)"/>
<path d="M0 0 C0 10.56 0 21.12 0 32 C-7.40902319 30.1477442 -10.23424479 29.30701827 -15 24 C-17.32542219 20.05689281 -17.53626484 16.51994652 -17 12 C-14.69600077 6.27750889 -11.52219744 3.1468313 -5.96484375 0.59375 C-4 0 -4 0 0 0 Z " fill="#033D89" transform="translate(352,365)"/>
<path d="M0 0 C0 10.56 0 21.12 0 32 C-12.07136883 28.37858935 -12.07136883 28.37858935 -16 22 C-17.41192337 17.76422988 -17.86076548 14.15593598 -16.1640625 9.90625 C-12.5065755 3.32768279 -7.5772124 0 0 0 Z " fill="#033C88" transform="translate(637,365)"/>
<path d="M0 0 C1.98 0.99 1.98 0.99 4 2 C3.34 2 2.68 2 2 2 C2 13.88 2 25.76 2 38 C1.34 38 0.68 38 0 38 C0 25.46 0 12.92 0 0 Z " fill="#1F428B" transform="translate(672,365)"/>
<path d="M0 0 C1.98 0.99 1.98 0.99 4 2 C3.34 2 2.68 2 2 2 C2 13.88 2 25.76 2 38 C1.34 38 0.68 38 0 38 C0 25.46 0 12.92 0 0 Z " fill="#023080" transform="translate(387,365)"/>
<path d="M0 0 C1.98 0.99 1.98 0.99 4 2 C3.34 2 2.68 2 2 2 C2.33 12.23 2.66 22.46 3 33 C2.01 33 1.02 33 0 33 C0 22.11 0 11.22 0 0 Z " fill="#24448D" transform="translate(672,438)"/>
<path d="M0 0 C0.33 0 0.66 0 1 0 C0.67 13.86 0.34 27.72 0 42 C-0.33 42 -0.66 42 -1 42 C-1.14464434 37.9107199 -1.2869552 33.82136541 -1.42724609 29.73193359 C-1.47513121 28.34519338 -1.52361769 26.95847379 -1.57275391 25.57177734 C-1.73279091 21.04828234 -1.87340417 16.52458366 -2 12 C-2.03351563 10.96456055 -2.06703125 9.92912109 -2.1015625 8.86230469 C-2.11960938 7.96672852 -2.13765625 7.07115234 -2.15625 6.1484375 C-2.17494141 5.38450684 -2.19363281 4.62057617 -2.21289062 3.83349609 C-2 2 -2 2 0 0 Z " fill="#ECF2F6" transform="translate(163,528)"/>
<path d="M0 0 C0.66 0 1.32 0 2 0 C2 10.56 2 21.12 2 32 C0.68 31.34 -0.64 30.68 -2 30 C-1.34 30 -0.68 30 0 30 C0 20.1 0 10.2 0 0 Z " fill="#133B89" transform="translate(350,365)"/>
<path d="M0 0 C0 9.57 0 19.14 0 29 C-2 27 -2 27 -2.22705078 24.47802734 C-2.21657715 23.4411377 -2.20610352 22.40424805 -2.1953125 21.3359375 C-2.18886719 20.21445312 -2.18242188 19.09296875 -2.17578125 17.9375 C-2.15902344 16.761875 -2.14226563 15.58625 -2.125 14.375 C-2.11597656 13.19164062 -2.10695313 12.00828125 -2.09765625 10.7890625 C-2.07402812 7.85917477 -2.04108514 4.9296866 -2 2 C-3.32 1.67 -4.64 1.34 -6 1 C-4 0 -4 0 0 0 Z " fill="#012B7E" transform="translate(637,365)"/>
<path d="M0 0 C3.225723 6.451446 2.99153514 14.37057751 1 21.3125 C0.67 22.199375 0.34 23.08625 0 24 C-0.66 23.67 -1.32 23.34 -2 23 C-1.34 15.41 -0.68 7.82 0 0 Z " fill="#ECF2F6" transform="translate(860,588)"/>
<path d="M0 0 C0.66 0.66 1.32 1.32 2 2 C-0.4566947 3.00419637 -2.91518353 4.00350501 -5.375 5 C-6.42300781 5.42925781 -6.42300781 5.42925781 -7.4921875 5.8671875 C-12.7734375 8 -12.7734375 8 -15 8 C-15 7.01 -15 6.02 -15 5 C-10.03739743 3.08460953 -5.13373162 1.39038565 0 0 Z " fill="#EAF1F5" transform="translate(666,879)"/>
<path d="M0 0 C2.28062828 3.42094242 2.21925007 4.68187222 2.125 8.6875 C2.10695312 9.68136719 2.08890625 10.67523437 2.0703125 11.69921875 C2.03550781 12.83810547 2.03550781 12.83810547 2 14 C1.01 14.33 0.02 14.66 -1 15 C-0.67 10.05 -0.34 5.1 0 0 Z " fill="#E6EDF2" transform="translate(133,508)"/>
<path d="M0 0 C0 0.66 0 1.32 0 2 C-4.29 2 -8.58 2 -13 2 C-13 1.34 -13 0.68 -13 0 C-4.57142857 -1.28571429 -4.57142857 -1.28571429 0 0 Z " fill="#E9EEF5" transform="translate(460,164)"/>
<path d="M0 0 C0.66 0.66 1.32 1.32 2 2 C1.34 2 0.68 2 0 2 C0 4.31 0 6.62 0 9 C-0.66 9 -1.32 9 -2 9 C-2.12375 9.804375 -2.2475 10.60875 -2.375 11.4375 C-2.58125 12.283125 -2.7875 13.12875 -3 14 C-3.99 14.495 -3.99 14.495 -5 15 C-4.54705135 13.24859857 -4.08741252 11.49892656 -3.625 9.75 C-3.36976563 8.77546875 -3.11453125 7.8009375 -2.8515625 6.796875 C-2.10401491 4.34162697 -1.22876183 2.24382595 0 0 Z " fill="#E8EFF4" transform="translate(849,652)"/>
<path d="M0 0 C0.33 0 0.66 0 1 0 C1.08089542 2.77141717 1.14044062 5.54047819 1.1875 8.3125 C1.21263672 9.09818359 1.23777344 9.88386719 1.26367188 10.69335938 C1.27333984 11.45068359 1.28300781 12.20800781 1.29296875 12.98828125 C1.3086792 13.68477783 1.32438965 14.38127441 1.34057617 15.09887695 C0.90238443 17.54489783 -0.13437358 18.42702086 -2 20 C-1.47594437 13.30992818 -0.89536075 6.6512513 0 0 Z " fill="#022279" transform="translate(726,448)"/>
<path d="M0 0 C0.33 0.66 0.66 1.32 1 2 C-2.3 2.33 -5.6 2.66 -9 3 C-9.33 2.34 -9.66 1.68 -10 1 C-6.78548731 -0.60725635 -3.56387464 -0.05748185 0 0 Z " fill="#053283" transform="translate(244,159)"/>
<path d="M0 0 C0.66 0.33 1.32 0.66 2 1 C2 1.99 2 2.98 2 4 C1.34 4 0.68 4 0 4 C0 5.65 0 7.3 0 9 C-0.66 9 -1.32 9 -2 9 C-2.33 10.32 -2.66 11.64 -3 13 C-4.39943663 10.20112673 -3.54753576 8.87861172 -2.625 5.9375 C-2.34914063 5.03902344 -2.07328125 4.14054688 -1.7890625 3.21484375 C-1 1 -1 1 0 0 Z " fill="#EAF0F5" transform="translate(715,640)"/>
<path d="M0 0 C1.37432457 3.81756824 0.67975039 7.07255329 0 11 C-0.66 11 -1.32 11 -2 11 C-2 7.7 -2 4.4 -2 1 C-1.34 0.67 -0.68 0.34 0 0 Z " fill="#ECF1F4" transform="translate(751,619)"/>
<path d="M0 0 C1.37553268 3.82092412 0.81309902 7.08234111 0 11 C-0.99 11.495 -0.99 11.495 -2 12 C-1.85962479 10.18706911 -1.71255111 8.3746557 -1.5625 6.5625 C-1.48128906 5.55316406 -1.40007813 4.54382813 -1.31640625 3.50390625 C-1 1 -1 1 0 0 Z " fill="#EDF3F6" transform="translate(588,368)"/>
<path d="M0 0 C5.94 0.99 5.94 0.99 12 2 C7.46780033 4.26609984 5.82227075 3.92735976 1 3 C0.67 2.01 0.34 1.02 0 0 Z " fill="#EEF2F5" transform="translate(591,167)"/>
<path d="M0 0 C2 2 2 2 2.1953125 4.8203125 C2.16050781 6.45613281 2.16050781 6.45613281 2.125 8.125 C2.10695313 9.22070312 2.08890625 10.31640625 2.0703125 11.4453125 C2.04710937 12.28835938 2.02390625 13.13140625 2 14 C1.67 14 1.34 14 1 14 C0.814375 12.14375 0.814375 12.14375 0.625 10.25 C0.24253695 7.1237803 -0.30549523 4.71120763 -2 2 C-1.34 1.34 -0.68 0.68 0 0 Z " fill="#0A468F" transform="translate(606,707)"/>
<path d="M0 0 C0.33 0.99 0.66 1.98 1 3 C0.67 3.66 0.34 4.32 0 5 C-0.35613097 6.66194453 -0.69208308 8.328451 -1 10 C-1.66 10 -2.32 10 -3 10 C-2.88637738 8.5199159 -2.75877092 7.04089926 -2.625 5.5625 C-2.55539062 4.73878906 -2.48578125 3.91507813 -2.4140625 3.06640625 C-2.27742187 2.38449219 -2.14078125 1.70257812 -2 1 C-1.34 0.67 -0.68 0.34 0 0 Z " fill="#EAF0F4" transform="translate(859,613)"/>
<path d="M0 0 C3 3 3 3 3.07421875 5.04296875 C2.71614583 7.02864583 2.35807292 9.01432292 2 11 C1.01 11 0.02 11 -1 11 C-0.67 7.37 -0.34 3.74 0 0 Z " fill="#C8DAE7" transform="translate(405,451)"/>
<path d="M0 0 C0.66 0 1.32 0 2 0 C1.01 3.3 0.02 6.6 -1 10 C-1.66 9.34 -2.32 8.68 -3 8 C-2.64700993 4.55834679 -1.95418308 2.93127462 0 0 Z " fill="#EAF1F5" transform="translate(740,661)"/>
<path d="M0 0 C0.99 0.33 1.98 0.66 3 1 C3.33 3.64 3.66 6.28 4 9 C3.01 9.495 3.01 9.495 2 10 C1.34 6.7 0.68 3.4 0 0 Z " fill="#EDF2F6" transform="translate(838,418)"/>
<path d="M0 0 C0.66 0 1.32 0 2 0 C1.67 1.98 1.34 3.96 1 6 C0.34 6 -0.32 6 -1 6 C-1 6.99 -1 7.98 -1 9 C-1.66 9 -2.32 9 -3 9 C-2.01 6.03 -1.02 3.06 0 0 Z " fill="#ECF0F5" transform="translate(155,412)"/>
<path d="M0 0 C1.15957207 3.47871621 0.77456651 4.34219645 -0.4375 7.6875 C-0.72496094 8.49574219 -1.01242188 9.30398438 -1.30859375 10.13671875 C-1.65083984 11.05904297 -1.65083984 11.05904297 -2 12 C-2.33 12 -2.66 12 -3 12 C-2.88648483 10.18674449 -2.75887039 8.37436643 -2.625 6.5625 C-2.55539063 5.55316406 -2.48578125 4.54382813 -2.4140625 3.50390625 C-2.27742187 2.67761719 -2.14078125 1.85132813 -2 1 C-1.34 0.67 -0.68 0.34 0 0 Z " fill="#ECF2F7" transform="translate(190,405)"/>
<path d="M0 0 C1.32 0.66 2.64 1.32 4 2 C3.34 3.65 2.68 5.3 2 7 C1.34 7 0.68 7 0 7 C-0.33 7.99 -0.66 8.98 -1 10 C-1.33 9.34 -1.66 8.68 -2 8 C-1.33333333 6.66666667 -0.66666667 5.33333333 0 4 C0 2.68 0 1.36 0 0 Z " fill="#EDF1F5" transform="translate(178,346)"/>
<path d="M0 0 C5.53846154 -0.36923077 5.53846154 -0.36923077 7.875 1.5 C8.24625 1.995 8.6175 2.49 9 3 C8.67 3.66 8.34 4.32 8 5 C5.36 3.68 2.72 2.36 0 1 C0 0.67 0 0.34 0 0 Z " fill="#E2EAF1" transform="translate(316,861)"/>
<path d="M0 0 C0.99 0.33 1.98 0.66 3 1 C2.33333333 4.33333333 1.66666667 7.66666667 1 11 C0.67 11 0.34 11 0 11 C-0.19491452 9.54263913 -0.38069358 8.08405407 -0.5625 6.625 C-0.66691406 5.81289063 -0.77132813 5.00078125 -0.87890625 4.1640625 C-1 2 -1 2 0 0 Z " fill="#EBF1F5" transform="translate(420,707)"/>
<path d="M0 0 C0.66 0 1.32 0 2 0 C0.25 5.75 0.25 5.75 -2 8 C-2.66 6.68 -3.32 5.36 -4 4 C-2.68 3.34 -1.36 2.68 0 2 C0 1.34 0 0.68 0 0 Z " fill="#E9F1F5" transform="translate(724,697)"/>
<path d="M0 0 C7.42857143 -0.28571429 7.42857143 -0.28571429 11 2 C9.741875 2.185625 8.48375 2.37125 7.1875 2.5625 C6.12595703 2.71912109 6.12595703 2.71912109 5.04296875 2.87890625 C3 3 3 3 0 2 C0 1.34 0 0.68 0 0 Z " fill="#03297C" transform="translate(419,668)"/>
<path d="M0 0 C0.66 0.33 1.32 0.66 2 1 C-0.64 3.64 -3.28 6.28 -6 9 C-6 5.82629722 -5.69066658 4.6205332 -4 2 C-2 0.6875 -2 0.6875 0 0 Z " fill="#04287B" transform="translate(318,342)"/>
<path d="M0 0 C-3.28463659 2.18975773 -6.20696275 2.99806563 -10 4 C-10 3.01 -10 2.02 -10 1 C-6.78548731 -0.60725635 -3.56387464 -0.05748185 0 0 Z " fill="#E9F0F5" transform="translate(650,887)"/>
<path d="M0 0 C0.66 0.33 1.32 0.66 2 1 C0.35 1.66 -1.3 2.32 -3 3 C-2.01 2.01 -1.02 1.02 0 0 Z M-5 3 C-4.34 3.33 -3.68 3.66 -3 4 C-3.33 5.65 -3.66 7.3 -4 9 C-4.66 9 -5.32 9 -6 9 C-5.67 7.02 -5.34 5.04 -5 3 Z " fill="#DEEAF1" transform="translate(306,460)"/>
<path d="M0 0 C0.66 0.99 1.32 1.98 2 3 C-3.75 6 -3.75 6 -6 6 C-6 5.34 -6 4.68 -6 4 C-5.34 4 -4.68 4 -4 4 C-4 3.34 -4 2.68 -4 2 C-2.68 1.34 -1.36 0.68 0 0 Z " fill="#E6EDF3" transform="translate(422,370)"/>
<path d="M0 0 C2.31 1.98 4.62 3.96 7 6 C6.67 6.99 6.34 7.98 6 9 C4.99406757 7.8803014 3.9954151 6.7540588 3 5.625 C2.443125 4.99851562 1.88625 4.37203125 1.3125 3.7265625 C0 2 0 2 0 0 Z " fill="#E8EFF3" transform="translate(209,776)"/>
<path d="M0 0 C2.97 0.495 2.97 0.495 6 1 C3.60236815 3.39763185 2.66726502 3.34280586 -0.625 3.625 C-1.44226563 3.69976563 -2.25953125 3.77453125 -3.1015625 3.8515625 C-3.72804688 3.90054688 -4.35453125 3.94953125 -5 4 C-5 3.34 -5 2.68 -5 2 C-3.35 1.67 -1.7 1.34 0 1 C0 0.67 0 0.34 0 0 Z " fill="#0A448E" transform="translate(526,762)"/>
<path d="M0 0 C0.99 0 1.98 0 3 0 C3.33 3.3 3.66 6.6 4 10 C1.04816899 7.04816899 0.91336012 4.04488053 0 0 Z " fill="#062D7D" transform="translate(310,642)"/>
<path d="M0 0 C-2.91765 1.9451 -4.62537285 2.45276317 -8 3 C-8 2.01 -8 1.02 -8 0 C-4.71023192 -1.09658936 -3.28696233 -0.79953138 0 0 Z " fill="#0C3786" transform="translate(697,566)"/>
<path d="M0 0 C3.82097239 0.53069061 6.06171403 1.49701566 9 4 C7.35 4.33 5.7 4.66 4 5 C2.68 3.35 1.36 1.7 0 0 Z " fill="#E5ECF3" transform="translate(409,410)"/>
<path d="M0 0 C-0.33 0.99 -0.66 1.98 -1 3 C-3.31 3 -5.62 3 -8 3 C-6.23110084 -0.53779831 -3.70375662 0 0 0 Z " fill="#E5EDF4" transform="translate(604,867)"/>
<path d="M0 0 C0.66 0 1.32 0 2 0 C5 5.75 5 5.75 5 8 C4.34 8 3.68 8 3 8 C0 2.25 0 2.25 0 0 Z " fill="#E5EDF3" transform="translate(813,357)"/>
</svg>
