<?xml version="1.0" encoding="UTF-8"?>
<svg version="1.1" xmlns="http://www.w3.org/2000/svg" width="1024" height="1024">
<path d="M0 0 C0.72396973 0.20367187 1.44793945 0.40734375 2.19384766 0.6171875 C19.63064117 5.70340951 34.77291681 14.63931963 48 27 C48.64839844 27.58007812 49.29679688 28.16015625 49.96484375 28.7578125 C59.14656268 37.35622223 66.57733889 48.25903091 73 59 C78.16542613 57.29113722 83.31625758 55.54734065 88.45703125 53.765625 C121.53624428 42.38991694 155.08390304 34.80538282 190 32 C191.25425781 31.88914063 192.50851562 31.77828125 193.80078125 31.6640625 C251.4749046 27.37473071 318.54922821 33.77461411 371 60 C371.26941406 59.278125 371.53882813 58.55625 371.81640625 57.8125 C376.11449308 47.59922437 383.66707757 39.15305192 391 31 C391.7425 30.17242187 392.485 29.34484375 393.25 28.4921875 C412.78779965 7.87693567 442.08044626 -3.42961617 470.12890625 -4.3359375 C507.68196398 -4.7911564 538.46407606 5.4699071 565.83203125 31.77734375 C575.5965915 41.50028944 582.81194614 52.75181839 589 65 C589.48726562 65.95447021 589.48726562 65.95447021 589.984375 66.92822266 C604.27585489 95.47457516 605.99896228 129.92756282 596.10742188 160.15087891 C588.41950293 182.40684717 576.04239326 200.73817437 559 217 C557.66428784 218.33095026 556.33045668 219.66379621 555 221 C555.44988281 221.89074219 555.89976562 222.78148437 556.36328125 223.69921875 C579.15558749 269.89380022 591.86360026 321.86445647 599.25 372.5625 C599.40106201 373.59375 599.55212402 374.625 599.70776367 375.6875 C602.28229985 394.29734529 603.38283596 412.78486612 603.3125 431.5625 C603.31034485 432.60759735 603.3081897 433.6526947 603.30596924 434.72946167 C603.00761352 525.31319013 568.65781561 607.75590365 504.62548828 671.49169922 C500.5553958 675.50352614 496.37637881 679.32352001 492 683 C490.6078125 684.20849609 490.6078125 684.20849609 489.1875 685.44140625 C429.59546684 736.97516229 353.66249263 769.10699926 276 780 C274.84999512 780.16516113 273.69999023 780.33032227 272.51513672 780.50048828 C170.33175829 794.58620844 62.12162216 765.34773259 -27.5 700.16381836 C-49.81621463 683.19004574 -71.72874144 664.16632114 -89 642 C-89.9254593 640.87259166 -90.85404542 639.74774534 -91.78515625 638.625 C-131.44050706 590.54515353 -153.88104125 529.67236776 -160 468 C-160.0942627 467.06720215 -160.18852539 466.1344043 -160.28564453 465.17333984 C-161.19406095 455.00200113 -161.24341627 444.82922586 -161.25 434.625 C-161.25067474 433.6786972 -161.25134949 432.73239441 -161.25204468 431.75741577 C-161.23281626 414.66191842 -160.26981455 397.96105515 -158 381 C-157.83371094 379.73285156 -157.66742188 378.46570313 -157.49609375 377.16015625 C-150.4767754 325.11321053 -136.09987086 274.610392 -115.078125 226.51000977 C-114.0095701 224.02228039 -112.99467988 221.51806602 -112 219 C-112.59675537 218.72559082 -113.19351074 218.45118164 -113.80834961 218.16845703 C-135.21577588 206.75529649 -148.9250747 175.66384745 -155.62890625 153.796875 C-157.2606882 148.2102058 -158.50171607 142.80856692 -159 137 C-159.06413086 136.29617188 -159.12826172 135.59234375 -159.19433594 134.8671875 C-162.25210821 99.40288135 -152.44743984 66.05783566 -129.43798828 38.65332031 C-97.45161819 1.87714065 -47.34680913 -13.58456158 0 0 Z M-96 53 C-96.70511719 53.62390625 -97.41023438 54.2478125 -98.13671875 54.890625 C-114.04502386 69.76754687 -125.43669464 93.19488046 -126.23828125 114.984375 C-126.77241696 142.51751402 -119.56505518 166.12419456 -100.3984375 186.56640625 C-92.78161123 194.29487981 -84.99271991 200.62583333 -75.7734375 206.28515625 C-73 208 -73 208 -72 209 C-71.21925415 214.88282921 -73.57373204 218.56830624 -76.375 223.5 C-102.47725283 271.46504188 -117.47679648 326.09099804 -125 380 C-125.16371094 381.14130371 -125.32742187 382.28260742 -125.49609375 383.45849609 C-136.6141367 464.0987642 -120.079331 546.79113608 -70.47583008 612.26171875 C-53.28585096 634.60176574 -33.64279202 655.14900203 -11 672 C-9.99960693 672.75313477 -9.99960693 672.75313477 -8.97900391 673.52148438 C17.41608218 693.33150513 46.34769015 709.75509556 77 722 C78.0420459 722.41733398 79.0840918 722.83466797 80.15771484 723.26464844 C124.95047258 740.98854629 172.68776576 750.26510046 220.875 750.1875 C221.63656403 750.18656342 222.39812805 750.18562683 223.18276978 750.18466187 C307.36245685 749.96216435 393.23500527 720.99245443 459 668 C459.91523437 667.27683594 460.83046875 666.55367187 461.7734375 665.80859375 C478.85025783 652.13245827 495.79807347 636.47446783 509 619 C509.495 618.36497559 509.99 617.72995117 510.5 617.07568359 C540.34844065 578.75317208 559.40637589 532.89959655 567 485 C567.14953125 484.14245117 567.2990625 483.28490234 567.453125 482.40136719 C573.16905408 448.85724028 572.19363197 411.54567816 567 378 C566.79378147 376.62909365 566.58773498 375.25816141 566.38183594 373.88720703 C558.25181686 320.38603562 544.4350832 259.65262481 514 214 C513.60546875 211.51953125 513.60546875 211.51953125 514 209 C515.80078125 207.26171875 515.80078125 207.26171875 518.3125 205.6875 C519.68728516 204.78644531 519.68728516 204.78644531 521.08984375 203.8671875 C522.05019531 203.25101563 523.01054688 202.63484375 524 202 C545.80196698 187.38097425 561.04177 166.88306365 567 141 C570.98880532 119.62785997 568.14921609 98.14343665 558 79 C557.24783203 77.50919922 557.24783203 77.50919922 556.48046875 75.98828125 C551.89306502 67.44968307 545.8078035 60.79152802 539 54 C538.2471875 53.23558594 537.494375 52.47117187 536.71875 51.68359375 C520.09252482 35.8328455 496.57923413 28.75859327 474 29 C449.52974677 29.96837258 428.28117675 40.70257618 411.37109375 58.2890625 C402.97082492 67.89332373 397.47547993 78.60756475 392 90 C390.95776738 92.15575001 389.89771293 94.30306334 388.8125 96.4375 C388.38582031 97.30246094 387.95914063 98.16742188 387.51953125 99.05859375 C386 101 386 101 383.73608398 101.75952148 C380.34566931 102.0575101 378.73663252 101.3014904 375.703125 99.7890625 C374.16047974 99.04100342 374.16047974 99.04100342 372.58666992 98.27783203 C371.48556885 97.73239746 370.38446777 97.18696289 369.25 96.625 C336.38547593 80.91950304 301.12875562 71.38681528 265 67 C264.15228027 66.89558594 263.30456055 66.79117188 262.43115234 66.68359375 C213.53772057 60.96442868 163.04707776 65.90286118 116 80 C115.16968262 80.24862793 114.33936523 80.49725586 113.48388672 80.75341797 C96.7432945 85.86148977 80.14367296 92.29418396 64.875 100.8828125 C62 102 62 102 58.96484375 102.359375 C53.90045459 100.03736258 52.6721377 95.0548342 50.5625 90.125 C49.59972663 88.00308115 48.6323323 85.88325242 47.66015625 83.765625 C47.20012207 82.75564453 46.74008789 81.74566406 46.26611328 80.70507812 C35.91551333 58.59079978 16.93048991 42.6458386 -5.4140625 33.62109375 C-36.91602785 23.02924188 -71.6470196 30.8108547 -96 53 Z " fill="#F7F8F8" transform="translate(291,128)"/>
<path d="M0 0 C9.91616051 8.97087731 18.67751904 18.65987074 26.71728516 29.31933594 C37.47271677 43.41153069 49.18761058 55.72682626 67.484375 58.71875 C81.68348126 60.30622772 94.66425763 56.26714792 108.07202148 52.06982422 C119.13576486 48.62757546 129.07096128 47.42904984 140 52 C150.27759888 57.47033489 156.238177 65.22119637 160.0859375 76.05859375 C170.0793898 112.53663137 148.36788472 160.88709795 131 192 C125.03886457 202.12946416 118.33193195 211.81669393 111 221 C110.59297852 221.50998535 110.18595703 222.0199707 109.76660156 222.54541016 C97.20000014 238.12285892 82.88639919 253.06315634 66.64013672 264.81298828 C64.95514622 266.0324619 63.29189054 267.2780705 61.62890625 268.52734375 C32.78061687 289.94856676 -0.75469978 303.4602424 -36 310 C-36.82628906 310.16226074 -37.65257812 310.32452148 -38.50390625 310.49169922 C-65.6151236 315.63073866 -96.95983365 315.41192324 -124 310 C-125.53551514 309.70198486 -125.53551514 309.70198486 -127.10205078 309.39794922 C-182.22958349 298.4315871 -234.49916621 267.82720792 -269 223 C-269.91909052 221.84490858 -270.83837292 220.68996984 -271.7578125 219.53515625 C-295.98337464 188.65637672 -311.01838174 152.21480146 -319 114 C-319.26683594 112.76121094 -319.53367187 111.52242187 -319.80859375 110.24609375 C-322.48992748 95.76689158 -323.17861825 78.73690723 -315.64453125 65.64453125 C-310.10670139 57.73122477 -302.49424328 51.65810467 -293.0625 49.25 C-292.051875 49.1675 -291.04125 49.085 -290 49 C-288.741875 48.896875 -287.48375 48.79375 -286.1875 48.6875 C-274.98615543 48.83760177 -263.41222844 53.02061908 -252.796875 56.33666992 C-238.81306776 60.63634791 -225.22219888 59.91152657 -211.875 53.875 C-199.68958055 47.35267613 -190.97915181 35.66979766 -182.77905273 24.87255859 C-178.7901885 19.65406738 -174.51503282 14.77217037 -170 10 C-169.15824219 9.09378906 -168.31648437 8.18757812 -167.44921875 7.25390625 C-127.01373329 -34.93709956 -44.55099988 -38.29535067 0 0 Z M-136.96875 22.984375 C-143.04145622 29.60462031 -144.48063592 34.60707667 -144.30859375 43.59375 C-143.0056219 57.97592027 -133.47262274 69.77902203 -123 79 C-116.79057575 84.12356568 -109.93808644 87.71444182 -102.70849609 91.16064453 C-91.59693108 96.47869506 -91.59693108 96.47869506 -90.1953125 100.05078125 C-90.17210937 100.79714844 -90.14890625 101.54351563 -90.125 102.3125 C-90.09019531 103.19292969 -90.05539062 104.07335937 -90.01953125 104.98046875 C-90.01308594 105.97691406 -90.00664062 106.97335937 -90 108 C-89.94392578 109.69576172 -89.94392578 109.69576172 -89.88671875 111.42578125 C-89.36492167 137.43324616 -89.36492167 137.43324616 -95.39453125 145.4609375 C-103.1035726 152.85111339 -114.38738203 155.3470868 -124.6875 156.25 C-126.04174072 156.37121216 -126.04174072 156.37121216 -127.42333984 156.49487305 C-168.68140281 159.7011448 -212.2436233 147.33517667 -244.0234375 120.44140625 C-253.87440807 111.80629854 -261.61454406 102.16819757 -268.17578125 90.84765625 C-271.2400862 85.96245825 -271.2400862 85.96245825 -276.18359375 83.43359375 C-276.92738281 83.43488281 -277.67117188 83.43617188 -278.4375 83.4375 C-279.54931641 83.40462891 -279.54931641 83.40462891 -280.68359375 83.37109375 C-284.24239568 84.33731147 -285.75444626 86.13068133 -288 89 C-294.18882445 119.17532416 -273.20978093 158.97728356 -257.62866211 183.27050781 C-252.30465574 191.29554464 -246.29261325 198.72068143 -240 206 C-239.19691406 206.93328125 -238.39382813 207.8665625 -237.56640625 208.828125 C-220.0461415 228.69067114 -199.52058276 244.84817523 -176 257 C-175.33564941 257.34514648 -174.67129883 257.69029297 -173.98681641 258.04589844 C-125.95336519 282.65769808 -67.03537269 286.59087625 -15.70117188 270.5559082 C24.62298851 257.28490168 61.39049776 232.11378978 87 198 C87.39348633 197.47760742 87.78697266 196.95521484 88.19238281 196.41699219 C109.21547695 168.31519449 133.17185363 126.57572163 128 90 C126.2315147 86.28658021 126.2315147 86.28658021 123 84 C120.96177508 83.68833886 120.96177508 83.68833886 118.6875 83.625 C117.92824219 83.57601562 117.16898438 83.52703125 116.38671875 83.4765625 C111.67561247 84.50976748 109.18852912 88.59001203 106.640625 92.41796875 C105.84055657 93.6724482 105.04379106 94.92903906 104.25 96.1875 C100.02620524 102.69423444 95.40955377 108.42108635 90 114 C89.41347656 114.66 88.82695313 115.32 88.22265625 116 C66.03054329 140.08596943 29.58175652 152.13293109 -2 156 C-4.78172637 156.1124825 -7.53864724 156.18698433 -10.3203125 156.203125 C-11.10082977 156.20882507 -11.88134705 156.21452515 -12.68551636 156.22039795 C-14.33102079 156.22979579 -15.9765436 156.23636103 -17.62207031 156.24023438 C-20.09735342 156.24989213 -22.57178778 156.2809451 -25.046875 156.3125 C-39.17624041 156.40729284 -53.07095985 155.41192884 -63.875 145.3125 C-69.35244244 136.77413384 -69.45137531 127.63300937 -69.33618164 117.79345703 C-69.31231468 115.6080306 -69.31567536 113.42380742 -69.32226562 111.23828125 C-69.2740723 99.12696235 -69.2740723 99.12696235 -67 96 C-65.20336914 94.84667969 -65.20336914 94.84667969 -63.03515625 93.921875 C-62.24036865 93.56996094 -61.44558105 93.21804688 -60.62670898 92.85546875 C-59.35742554 92.30826172 -59.35742554 92.30826172 -58.0625 91.75 C-50.32433031 88.24494099 -43.55904229 84.46409682 -37 79 C-36.15308594 78.33742188 -35.30617188 77.67484375 -34.43359375 76.9921875 C-24.13510097 68.47038126 -16.1922802 56.73052176 -14.6953125 43.2578125 C-14.28523182 34.5496286 -16.64734198 28.25042382 -22.5 21.8125 C-37.65218139 7.80230287 -59.90868808 6.7654693 -79.4375 6.75 C-80.19944672 6.74932526 -80.96139343 6.74865051 -81.74642944 6.74795532 C-101.50714336 6.77580674 -122.25591816 8.15477465 -136.96875 22.984375 Z " fill="#F7F8F8" transform="translate(592,513)"/>
<path d="M0 0 C1.13888672 -0.00515625 2.27777344 -0.0103125 3.45117188 -0.015625 C4.63130859 -0.00015625 5.81144531 0.0153125 7.02734375 0.03125 C8.80334961 0.00804687 8.80334961 0.00804687 10.61523438 -0.015625 C12.32163086 -0.00789063 12.32163086 -0.00789063 14.0625 0 C15.09898682 0.00451172 16.13547363 0.00902344 17.20336914 0.01367188 C20.63892096 0.65759106 21.8098977 1.83662778 23.96484375 4.53125 C25.6720286 9.22386362 24.84527404 14.44323825 24.52734375 19.34375 C24.47513672 20.22740234 24.42292969 21.11105469 24.36914062 22.02148438 C24.24009756 24.19175408 24.10324419 26.36155693 23.96484375 28.53125 C24.60808594 28.61761719 25.25132812 28.70398438 25.9140625 28.79296875 C42.5116709 31.37376663 57.63031183 38.40106797 67.828125 52.01953125 C70.35432585 55.84658036 71.85192025 58.33262829 72.2890625 62.97265625 C70.4704313 67.85989231 67.86746895 68.79144674 63.30078125 71.0078125 C61.77324219 71.70003906 61.77324219 71.70003906 60.21484375 72.40625 C59.21195313 72.8909375 58.2090625 73.375625 57.17578125 73.875 C48.24472572 78.11547464 48.24472572 78.11547464 43.96484375 78.53125 C41.46484375 76.40625 41.46484375 76.40625 38.96484375 73.53125 C34.20421654 68.09053319 31.32113122 67.20939374 23.96484375 63.53125 C24.29484375 76.07125 24.62484375 88.61125 24.96484375 101.53125 C30.57484375 102.85125 36.18484375 104.17125 41.96484375 105.53125 C45.05006943 106.72927599 47.68212408 107.79308582 50.52734375 109.34375 C51.18589355 109.68921875 51.84444336 110.0346875 52.52294922 110.390625 C63.83713122 116.51762066 71.53106798 125.4350002 75.96484375 137.53125 C79.14784053 148.63526995 78.20162714 163.31723225 72.96484375 173.53125 C70.83090736 177.04160012 68.4888903 180.29375562 65.96484375 183.53125 C65.36671875 184.418125 64.76859375 185.305 64.15234375 186.21875 C54.98432089 195.91065988 41.90451595 201.25104988 28.96484375 203.53125 C27.29828245 203.54999082 25.63137197 203.55273218 23.96484375 203.53125 C23.99626465 204.49949707 23.99626465 204.49949707 24.02832031 205.48730469 C24.1115858 208.41846068 24.16353581 211.34936777 24.21484375 214.28125 C24.24835938 215.29703125 24.281875 216.3128125 24.31640625 217.359375 C24.33574219 218.82890625 24.33574219 218.82890625 24.35546875 220.328125 C24.38688965 221.67922363 24.38688965 221.67922363 24.41894531 223.05761719 C23.80151358 226.42096036 22.71762583 227.53670734 19.96484375 229.53125 C15.50467586 230.36051028 10.99346928 230.13388902 6.46484375 230.09375 C5.22863281 230.11759766 3.99242187 230.14144531 2.71875 230.16601562 C1.53152344 230.16408203 0.34429688 230.16214844 -0.87890625 230.16015625 C-2.50602539 230.1612439 -2.50602539 230.1612439 -4.16601562 230.16235352 C-7.03515625 229.53125 -7.03515625 229.53125 -9.39550781 227.30957031 C-11.15673046 224.32524724 -11.50962711 222.86593751 -11.42578125 219.44921875 C-11.41289063 218.51787109 -11.4 217.58652344 -11.38671875 216.62695312 C-11.33644531 215.18739258 -11.33644531 215.18739258 -11.28515625 213.71875 C-11.26710938 212.73970703 -11.2490625 211.76066406 -11.23046875 210.75195312 C-11.18348512 208.34404229 -11.11781319 205.93815665 -11.03515625 203.53125 C-12.17339844 203.42039062 -13.31164062 203.30953125 -14.484375 203.1953125 C-26.43553568 201.68663288 -38.56157639 196.93248427 -48.03515625 189.53125 C-48.67453125 189.03367187 -49.31390625 188.53609375 -49.97265625 188.0234375 C-54.01934547 184.4283877 -56.73781326 180.08707376 -59.47265625 175.46875 C-59.82739014 174.87892334 -60.18212402 174.28909668 -60.54760742 173.68139648 C-62.7101816 169.83878827 -63.70473968 166.9277601 -63.03515625 162.53125 C-60.33870898 160.38509809 -58.09327423 159.04731416 -55.03515625 157.53125 C-54.45088867 157.23508789 -53.86662109 156.93892578 -53.26464844 156.63378906 C-51.30055945 155.64427086 -49.32706661 154.67722925 -47.34765625 153.71875 C-46.70626709 153.40429932 -46.06487793 153.08984863 -45.40405273 152.76586914 C-41.84409771 151.10166065 -38.979745 149.93315351 -35.03515625 150.53125 C-33.09765625 152.59375 -33.09765625 152.59375 -31.03515625 155.53125 C-25.8691401 162.7308725 -19.62450742 166.38391221 -11.03515625 168.53125 C-11.03515625 155.99125 -11.03515625 143.45125 -11.03515625 130.53125 C-14.00515625 130.20125 -16.97515625 129.87125 -20.03515625 129.53125 C-22.7748577 128.73936733 -25.32950458 127.92896052 -27.97265625 126.90625 C-28.66359375 126.64118652 -29.35453125 126.37612305 -30.06640625 126.10302734 C-36.03504908 123.71138658 -41.10704678 120.68823443 -46.03515625 116.53125 C-46.751875 115.93699219 -47.46859375 115.34273438 -48.20703125 114.73046875 C-56.69155797 107.02741159 -61.48738802 96.31982959 -62.28515625 84.9765625 C-62.93570169 69.20710939 -58.58863262 55.74651139 -47.97265625 43.84375 C-38.37499181 34.93163302 -24.19571665 28.3197236 -11.03515625 28.53125 C-11.06134033 27.82516602 -11.08752441 27.11908203 -11.11450195 26.39160156 C-11.21851982 23.18837792 -11.28349774 19.9855094 -11.34765625 16.78125 C-11.38955078 15.67007812 -11.43144531 14.55890625 -11.47460938 13.4140625 C-11.49072266 12.34414063 -11.50683594 11.27421875 -11.5234375 10.171875 C-11.54962158 9.18735352 -11.57580566 8.20283203 -11.6027832 7.18847656 C-11.03515625 4.53125 -11.03515625 4.53125 -8.88183594 2.21191406 C-5.62274384 0.28776397 -3.75897531 0.01634464 0 0 Z M-23.03515625 67.53125 C-26.79397418 71.77196767 -28.29609772 75.92100849 -28.03515625 81.53125 C-26.38803536 87.24772837 -23.98602052 90.26181133 -19.03515625 93.53125 C-16.39515625 94.19125 -13.75515625 94.85125 -11.03515625 95.53125 C-11.03515625 84.97125 -11.03515625 74.41125 -11.03515625 63.53125 C-15.97827405 63.53125 -18.95259539 64.83189764 -23.03515625 67.53125 Z M23.96484375 137.53125 C23.96484375 148.09125 23.96484375 158.65125 23.96484375 169.53125 C32.04012671 168.52183963 34.60853736 167.61542344 40.27734375 162.40625 C43.01357975 157.74451459 43.55087202 152.78833345 42.59375 147.46875 C41.37906068 143.96803048 39.76986541 142.38306646 36.83984375 140.15625 C32.26907852 138.02492783 32.26907852 138.02492783 23.96484375 137.53125 Z " fill="#F7F8F9" transform="translate(648.03515625,301.46875)"/>
<path d="M0 0 C1.77020508 -0.03577148 1.77020508 -0.03577148 3.57617188 -0.07226562 C8.47828712 -0.06394285 12.01356283 -0.00919561 16.359375 2.359375 C18.98168192 7.29123664 18.59287504 11.88790097 18.375 17.375 C18.35244141 18.44943359 18.32988281 19.52386719 18.30664062 20.63085938 C18.24785598 23.2761685 18.16573957 25.91861413 18.0625 28.5625 C18.78042725 28.68077148 19.49835449 28.79904297 20.23803711 28.92089844 C36.69420966 31.74975544 51.86825412 38.25163924 61.890625 52.0859375 C64.95986983 56.86191193 66.39823898 59.77100255 66.0625 65.5625 C63.00217541 67.19162132 59.93886963 68.815057 56.875 70.4375 C56.01068359 70.89769531 55.14636719 71.35789062 54.25585938 71.83203125 C53.41474609 72.27675781 52.57363281 72.72148437 51.70703125 73.1796875 C50.93721924 73.58815918 50.16740723 73.99663086 49.37426758 74.41748047 C44.83128313 76.66762273 41.20808738 78.24353362 36.0625 77.5625 C33.86633846 75.57817293 32.32973898 73.3984124 30.578125 71.01953125 C27.25365151 67.5226006 27.25365151 67.5226006 18.0625 63.5625 C18.3925 76.1025 18.7225 88.6425 19.0625 101.5625 C21.90875 102.243125 24.755 102.92375 27.6875 103.625 C42.35470992 107.37742836 56.03532683 113.26145398 64.4375 126.5 C71.42442949 139.09969833 72.96083064 152.69257169 69.09765625 166.58203125 C64.02148754 181.19756606 53.84193361 191.81033978 40.0625 198.5625 C33.28208438 201.32031719 26.23709805 203.16212902 19.0625 204.5625 C19.0531543 205.17770508 19.04380859 205.79291016 19.03417969 206.42675781 C18.98038915 209.22281086 18.89676181 212.0172062 18.8125 214.8125 C18.79832031 215.78058594 18.78414063 216.74867188 18.76953125 217.74609375 C18.73730469 218.68066406 18.70507812 219.61523438 18.671875 220.578125 C18.65092773 221.43696289 18.62998047 222.29580078 18.60839844 223.18066406 C17.86430504 226.42725405 16.73610283 227.60096784 14.0625 229.5625 C11.19335938 230.08007812 11.19335938 230.08007812 7.90625 230.09375 C6.71902344 230.09890625 5.53179687 230.1040625 4.30859375 230.109375 C2.45427734 230.08617187 2.45427734 230.08617187 0.5625 230.0625 C-0.67371094 230.07796875 -1.90992188 230.0934375 -3.18359375 230.109375 C-4.96443359 230.10164063 -4.96443359 230.10164063 -6.78125 230.09375 C-7.86599609 230.08923828 -8.95074219 230.08472656 -10.06835938 230.08007812 C-13.64419784 229.43501537 -14.81732284 228.48416174 -16.9375 225.5625 C-17.48339844 223.18066406 -17.48339844 223.18066406 -17.546875 220.578125 C-17.57910156 219.64355469 -17.61132812 218.70898438 -17.64453125 217.74609375 C-17.65871094 216.77800781 -17.67289062 215.80992187 -17.6875 214.8125 C-17.71714844 213.82894531 -17.74679687 212.84539062 -17.77734375 211.83203125 C-17.84792411 209.40877224 -17.90067701 206.98646846 -17.9375 204.5625 C-19.53464844 204.14291016 -19.53464844 204.14291016 -21.1640625 203.71484375 C-42.18390719 197.99654977 -56.34899657 189.14381808 -67.9375 170.3125 C-69.22946332 166.75960088 -69.14979858 165.15399129 -67.9375 161.5625 C-65.59252532 159.69558964 -62.98541571 158.56947294 -60.25 157.375 C-59.54166016 157.04564453 -58.83332031 156.71628906 -58.10351562 156.37695312 C-56.70533011 155.72756502 -55.30184061 155.08946429 -53.89306641 154.46337891 C-52.15451331 153.66247243 -50.46820734 152.75028232 -48.79296875 151.82421875 C-45.49864455 150.36858713 -43.49453756 149.96393644 -39.9375 150.5625 C-38.13671875 152.5390625 -38.13671875 152.5390625 -36.625 155.1875 C-31.48864975 163.1924962 -26.0031652 165.97230994 -16.9375 168.5625 C-17.2675 156.3525 -17.5975 144.1425 -17.9375 131.5625 C-23.5475 129.9125 -29.1575 128.2625 -34.9375 126.5625 C-48.18699047 120.90252349 -58.51555492 112.52643323 -64.99609375 99.421875 C-70.0172263 86.44861387 -68.72659776 70.48359345 -63.1875 57.8984375 C-55.80522579 44.10281257 -43.27214773 35.460513 -28.734375 30.4609375 C-24.61115283 29.28129907 -21.25141995 28.5625 -16.9375 28.5625 C-16.95844727 27.85641602 -16.97939453 27.15033203 -17.00097656 26.42285156 C-17.08419298 23.21954624 -17.13617785 20.01646837 -17.1875 16.8125 C-17.22101563 15.70132812 -17.25453125 14.59015625 -17.2890625 13.4453125 C-17.30195313 12.37539063 -17.31484375 11.30546875 -17.328125 10.203125 C-17.34907227 9.21860352 -17.37001953 8.23408203 -17.39160156 7.21972656 C-15.86836471 -1.69366585 -7.04036767 -0.0651531 0 0 Z M-28.9375 67.5625 C-32.99910202 72.04067658 -34.19388838 76.62283591 -33.9375 82.5625 C-32.24341432 87.74440915 -29.41202025 90.52320322 -24.9375 93.5625 C-22.2975 94.2225 -19.6575 94.8825 -16.9375 95.5625 C-16.9375 85.0025 -16.9375 74.4425 -16.9375 63.5625 C-21.88522542 63.5625 -24.84880379 64.86748669 -28.9375 67.5625 Z M18.0625 137.5625 C18.0625 148.1225 18.0625 158.6825 18.0625 169.5625 C26.81716859 168.33245098 26.81716859 168.33245098 33.375 163 C36.81496126 158.03116707 36.64094682 153.48948406 36.0625 147.5625 C33.88739193 142.57787735 30.95549848 140.56589601 26.2578125 138.2265625 C23.48759096 137.27296534 23.48759096 137.27296534 18.0625 137.5625 Z " fill="#F7F8F9" transform="translate(368.9375,301.4375)"/>
<path d="M0 0 C2.44140625 1.5703125 2.44140625 1.5703125 5 3.5625 C20.33070186 15.43211543 40.93897721 21.59393647 60 24 C61.27230469 24.16435547 61.27230469 24.16435547 62.5703125 24.33203125 C91.15022005 27.45665671 127.77565572 22.4058445 151.16796875 4.32421875 C152.16763672 3.51404297 152.16763672 3.51404297 153.1875 2.6875 C157.18048254 -0.41360734 159.92182918 -1.1664974 165 -1 C168.1120618 0.75899145 169.55755571 2.22045529 171.3125 5.3125 C172.87659705 11.42669756 172.06968062 15.51633818 169.23974609 20.9465332 C167.27167995 24.20636075 164.84544983 26.79277828 162.125 29.4375 C161.27397705 30.2720874 161.27397705 30.2720874 160.40576172 31.12353516 C154.50947736 36.72880466 148.11625725 41.09371979 141 45 C140.12287354 45.48291504 140.12287354 45.48291504 139.22802734 45.97558594 C120.69832505 55.91438316 99.66473101 59.40980195 78.8125 59.3125 C77.55091064 59.30758545 76.28932129 59.3026709 74.98950195 59.29760742 C42.25071148 58.89017465 12.26468589 47.94315758 -10.890625 24.4453125 C-14.6140205 20.12893179 -15.30889789 17.28033217 -15.375 11.5625 C-15.40335937 10.45003906 -15.43171875 9.33757813 -15.4609375 8.19140625 C-14.90673868 4.35428393 -13.67977902 2.74453205 -11 0 C-7.36989682 -1.81505159 -3.74860622 -1.09357836 0 0 Z " fill="#F6F8F8" transform="translate(434,704)"/>
<path d="M0 0 C0.66 0.33 1.32 0.66 2 1 C-13.06326022 21.61990132 -13.06326022 21.61990132 -20 30 C-20.66 29.67 -21.32 29.34 -22 29 C-22 27 -22 27 -19.7734375 24.69921875 C-18.85820313 23.80847656 -17.94296875 22.91773438 -17 22 C-11.70723869 15.91238938 -6.85356792 9.56287514 -2.3125 2.8984375 C-1 1 -1 1 0 0 Z " fill="#E0FDFD" transform="translate(839,745)"/>
<path d="M0 0 C0.99 0.495 0.99 0.495 2 1 C1.01 1.495 1.01 1.495 0 2 C0 1.34 0 0.68 0 0 Z M-1 2 C-0.34 3.32 0.32 4.64 1 6 C-1.31 7.65 -3.62 9.3 -6 11 C-4.50163895 7.88801935 -2.80066242 4.9465385 -1 2 Z M-7 11 C-6.67 11.99 -6.34 12.98 -6 14 C-7.65234375 16.48046875 -7.65234375 16.48046875 -9.9375 19.1875 C-10.68902344 20.08855469 -11.44054687 20.98960937 -12.21484375 21.91796875 C-12.80394531 22.60503906 -13.39304687 23.29210937 -14 24 C-14.66 23.67 -15.32 23.34 -16 23 C-13.03 19.04 -10.06 15.08 -7 11 Z M-18 25 C-18 28 -18 28 -18 28 Z M-22 30 C-21.67 30.99 -21.34 31.98 -21 33 C-21.99 33.33 -22.98 33.66 -24 34 C-23.34 32.68 -22.68 31.36 -22 30 Z " fill="#E8FEFD" transform="translate(815,724)"/>
<path d="M0 0 C2.642656 2.62151476 2.99834588 3.97500802 3.2487793 7.75878906 C3.20654436 9.26160078 3.14737515 10.76400089 3.07421875 12.265625 C3.04777786 13.05902283 3.02133698 13.85242065 2.99409485 14.66986084 C2.90650796 17.19735476 2.79730067 19.72338322 2.6875 22.25 C2.62422268 23.96609376 2.56235725 25.6822402 2.50195312 27.3984375 C2.35099601 31.59974472 2.1806474 35.79986889 2 40 C1.67 40 1.34 40 1 40 C0.85535566 35.9107199 0.7130448 31.82136541 0.57275391 27.73193359 C0.52486879 26.34519338 0.47638231 24.95847379 0.42724609 23.57177734 C0.14921385 15.71311081 -0.08438919 7.86460404 0 0 Z " fill="#E4F0F4" transform="translate(161,530)"/>
<path d="M0 0 C2.00343915 1.64250624 2.92765255 2.47077345 3.28515625 5.0859375 C2.69216064 11.18234848 2.69216064 11.18234848 0.62109375 13.62890625 C-0.86252539 14.82652652 -2.42881759 15.9198121 -4 17 C-4.33 17.66 -4.66 18.32 -5 19 C-7.375 20.1875 -7.375 20.1875 -10 21 C-10.99 20.67 -11.98 20.34 -13 20 C-12.278125 19.5875 -11.55625 19.175 -10.8125 18.75 C-6.46026525 16.04194282 -2.99038097 13.82384908 -1 9 C-0.55188863 6.64435404 -0.55188863 6.64435404 -0.375 4.25 C-0.30023438 3.45078125 -0.22546875 2.6515625 -0.1484375 1.828125 C-0.09945313 1.22484375 -0.05046875 0.6215625 0 0 Z " fill="#D9F0F4" transform="translate(405,451)"/>
<path d="M0 0 C0.66 0 1.32 0 2 0 C1.65204127 4.05951855 0.49878844 5.59967018 -2.46484375 8.26953125 C-5.39910533 11.57710855 -7.32747609 15.59541107 -9.44921875 19.453125 C-11 22 -11 22 -13 23 C-9.99307177 14.88724809 -5.19332686 6.92443582 0 0 Z " fill="#F1FEFD" transform="translate(157,172)"/>
<path d="M0 0 C7.26 0.33 14.52 0.66 22 1 C21.01 2.485 21.01 2.485 20 4 C13.4 3.34 6.8 2.68 0 2 C0 1.34 0 0.68 0 0 Z " fill="#DCF3F6" transform="translate(474,822)"/>
<path d="M0 0 C1.29858939 0.56775536 2.58870441 1.15491663 3.875 1.75 C4.59429687 2.07484375 5.31359375 2.3996875 6.0546875 2.734375 C8.37497297 4.24395832 8.88494341 5.5103478 10 8 C10.86625 8.86625 11.7325 9.7325 12.625 10.625 C15 13 15 13 15 15 C14.34 15 13.68 15 13 15 C11.51953125 13.42578125 11.51953125 13.42578125 9.8125 11.3125 C6.54063822 7.44262987 3.23245953 4.76405521 -1 2 C-0.67 1.34 -0.34 0.68 0 0 Z " fill="#E8FDFD" transform="translate(309,173)"/>
<path d="M0 0 C2.84880302 4.27320453 4.28990619 6.78168857 4 12 C3.34 12 2.68 12 2 12 C2.33 13.98 2.66 15.96 3 18 C2.34 18 1.68 18 1 18 C0.67 12.06 0.34 6.12 0 0 Z " fill="#D1EBF1" transform="translate(130,578)"/>
<path d="M0 0 C2.23551759 3.35327639 2.17283528 3.90743657 1.625 7.6875 C1.51414062 8.49574219 1.40328125 9.30398438 1.2890625 10.13671875 C1.19367187 10.75160156 1.09828125 11.36648438 1 12 C0.34 12 -0.32 12 -1 12 C-1 12.66 -1 13.32 -1 14 C-1.66 13.67 -2.32 13.34 -3 13 C-2.01 8.71 -1.02 4.42 0 0 Z " fill="#CDF9FA" transform="translate(854,629)"/>
<path d="M0 0 C0.66 0.33 1.32 0.66 2 1 C-1.45889719 5.17950077 -4.98286401 6.32762134 -10 8 C-10 7.34 -10 6.68 -10 6 C-7.8828125 4.45703125 -7.8828125 4.45703125 -5.125 2.8125 C-4.22007812 2.26207031 -3.31515625 1.71164062 -2.3828125 1.14453125 C-1.20332031 0.57798828 -1.20332031 0.57798828 0 0 Z " fill="#E7FDFD" transform="translate(624,760)"/>
<path d="M0 0 C0.33 0.99 0.66 1.98 1 3 C-2.3 3 -5.6 3 -9 3 C-9.33 2.34 -9.66 1.68 -10 1 C-6.59437148 0.22157062 -3.49234244 -0.09978121 0 0 Z " fill="#E6F5F9" transform="translate(459,163)"/>
<path d="M0 0 C0.66 0.33 1.32 0.66 2 1 C-0.36797991 3.61724095 -2.89600354 5.32861729 -6 7 C-6.66 7 -7.32 7 -8 7 C-8 6.34 -8 5.68 -8 5 C-6.3203125 3.67578125 -6.3203125 3.67578125 -4.125 2.3125 C-3.40570312 1.85488281 -2.68640625 1.39726563 -1.9453125 0.92578125 C-1.30335938 0.62027344 -0.66140625 0.31476562 0 0 Z " fill="#E6FDFC" transform="translate(725,813)"/>
<path d="M0 0 C0.33 0.66 0.66 1.32 1 2 C0.34 1.67 -0.32 1.34 -1 1 C-0.67 0.67 -0.34 0.34 0 0 Z M-1 2 C-1 2.66 -1 3.32 -1 4 C-3.25 6.1875 -3.25 6.1875 -6 8 C-8.171875 7.61328125 -8.171875 7.61328125 -10 7 C-8.87926138 6.16094435 -7.75325453 5.32892169 -6.625 4.5 C-5.99851562 4.0359375 -5.37203125 3.571875 -4.7265625 3.09375 C-3 2 -3 2 -1 2 Z " fill="#E5FEFE" transform="translate(640,749)"/>
<path d="M0 0 C0 0.66 0 1.32 0 2 C1.32 2.33 2.64 2.66 4 3 C0.7 3.33 -2.6 3.66 -6 4 C-6 3.34 -6 2.68 -6 2 C-2.25 0 -2.25 0 0 0 Z " fill="#D8F7F8" transform="translate(599,665)"/>
<path d="M0 0 C3.96 0 7.92 0 12 0 C12 0.33 12 0.66 12 1 C9.02148438 1.34179688 9.02148438 1.34179688 6.04296875 1.68359375 C3.80603607 1.97170735 3.80603607 1.97170735 1 3 C0.67 2.01 0.34 1.02 0 0 Z " fill="#CDDBE7" transform="translate(494,792)"/>
<path d="M0 0 C0.66 0.99 1.32 1.98 2 3 C0.625 5 0.625 5 -1 7 C-1.66 7 -2.32 7 -3 7 C-2.25 2.25 -2.25 2.25 0 0 Z " fill="#ECFCFD" transform="translate(422,705)"/>
<path d="M0 0 C-0.33 0.99 -0.66 1.98 -1 3 C-3.875 3.125 -3.875 3.125 -7 3 C-7.66 2.34 -8.32 1.68 -9 1 C-5.846632 0.29925156 -3.27275026 0 0 0 Z " fill="#D4F5F8" transform="translate(440,166)"/>
<path d="M0 0 C2.31 0.33 4.62 0.66 7 1 C7.33 1.99 7.66 2.98 8 4 C5.125 3.6875 5.125 3.6875 2 3 C1.34 2.01 0.68 1.02 0 0 Z " fill="#E6F8F9" transform="translate(453,817)"/>
</svg>
